<mxfile host="app.diagrams.net" modified="2020-07-30T03:53:15.234Z" agent="5.0 (Windows NT 10.0; Win64; x64) AppleWebKit/537.36 (KHTML, like Gecko) Chrome/84.0.4147.105 Safari/537.36" etag="o82xEe53kKHEpEkqGPQE" version="13.5.4" type="github">
  <diagram name="Page-1" id="9f46799a-70d6-7492-0946-bef42562c5a5">
    <mxGraphModel dx="1038" dy="548" grid="1" gridSize="10" guides="1" tooltips="1" connect="1" arrows="1" fold="1" page="1" pageScale="1" pageWidth="1100" pageHeight="850" background="#ffffff" math="0" shadow="0">
      <root>
        <mxCell id="0" />
        <mxCell id="1" parent="0" />
        <mxCell id="zGKTYWUoGFUMK8WJWvqi-28" style="edgeStyle=orthogonalEdgeStyle;rounded=1;orthogonalLoop=1;jettySize=auto;html=1;exitX=0.75;exitY=1;exitDx=0;exitDy=0;dashed=1;strokeColor=#FF0000;" edge="1" parent="1" source="zGKTYWUoGFUMK8WJWvqi-1" target="zGKTYWUoGFUMK8WJWvqi-27">
          <mxGeometry relative="1" as="geometry" />
        </mxCell>
        <mxCell id="zGKTYWUoGFUMK8WJWvqi-1" value="JomooMbEcService&#xa;EC服务工单表" style="shape=module;align=left;spacingLeft=20;align=center;verticalAlign=top;jettyWidth=27;jettyHeight=8;fillColor=#dae8fc;strokeColor=#6c8ebf;" vertex="1" parent="1">
          <mxGeometry x="310" y="380" width="160" height="40" as="geometry" />
        </mxCell>
        <mxCell id="zGKTYWUoGFUMK8WJWvqi-8" style="edgeStyle=orthogonalEdgeStyle;rounded=0;orthogonalLoop=1;jettySize=auto;html=1;entryX=0.5;entryY=0;entryDx=0;entryDy=0;" edge="1" parent="1" source="zGKTYWUoGFUMK8WJWvqi-2" target="zGKTYWUoGFUMK8WJWvqi-6">
          <mxGeometry relative="1" as="geometry" />
        </mxCell>
        <mxCell id="zGKTYWUoGFUMK8WJWvqi-2" value="kafka" style="ellipse;shape=cloud;whiteSpace=wrap;html=1;" vertex="1" parent="1">
          <mxGeometry x="130" y="190" width="120" height="80" as="geometry" />
        </mxCell>
        <mxCell id="zGKTYWUoGFUMK8WJWvqi-4" value="会员同步接口" style="rounded=1;whiteSpace=wrap;html=1;arcSize=40;fontColor=#000000;fillColor=#ffffc0;strokeColor=#ff0000;" vertex="1" parent="1">
          <mxGeometry x="130" y="110" width="120" height="40" as="geometry" />
        </mxCell>
        <mxCell id="zGKTYWUoGFUMK8WJWvqi-5" value="" style="edgeStyle=orthogonalEdgeStyle;html=1;verticalAlign=bottom;endArrow=open;endSize=8;strokeColor=#ff0000;" edge="1" source="zGKTYWUoGFUMK8WJWvqi-4" parent="1" target="zGKTYWUoGFUMK8WJWvqi-2">
          <mxGeometry relative="1" as="geometry">
            <mxPoint x="220" y="140" as="targetPoint" />
          </mxGeometry>
        </mxCell>
        <mxCell id="zGKTYWUoGFUMK8WJWvqi-6" value="消费接口数据&lt;br&gt;MemberServiceConsumerListener" style="rounded=1;whiteSpace=wrap;html=1;arcSize=40;fontColor=#000000;fillColor=#ffffc0;strokeColor=#ff0000;" vertex="1" parent="1">
          <mxGeometry x="90" y="310" width="200" height="40" as="geometry" />
        </mxCell>
        <mxCell id="zGKTYWUoGFUMK8WJWvqi-7" value="" style="edgeStyle=orthogonalEdgeStyle;html=1;verticalAlign=bottom;endArrow=open;endSize=8;strokeColor=#ff0000;entryX=0.25;entryY=0;entryDx=0;entryDy=0;" edge="1" source="zGKTYWUoGFUMK8WJWvqi-6" parent="1" target="zGKTYWUoGFUMK8WJWvqi-1">
          <mxGeometry relative="1" as="geometry">
            <mxPoint x="190" y="450" as="targetPoint" />
          </mxGeometry>
        </mxCell>
        <mxCell id="zGKTYWUoGFUMK8WJWvqi-9" value="文件读取&lt;br&gt;（期初执行一次）" style="rounded=1;whiteSpace=wrap;html=1;arcSize=40;fontColor=#000000;fillColor=#ffffc0;strokeColor=#ff0000;" vertex="1" parent="1">
          <mxGeometry x="330" y="110" width="120" height="40" as="geometry" />
        </mxCell>
        <mxCell id="zGKTYWUoGFUMK8WJWvqi-11" value="工单导入" style="rounded=1;whiteSpace=wrap;html=1;arcSize=40;fontColor=#000000;fillColor=#ffffc0;strokeColor=#ff0000;" vertex="1" parent="1">
          <mxGeometry x="530" y="110" width="120" height="40" as="geometry" />
        </mxCell>
        <mxCell id="zGKTYWUoGFUMK8WJWvqi-14" value="" style="edgeStyle=orthogonalEdgeStyle;html=1;verticalAlign=bottom;endArrow=open;endSize=8;strokeColor=#ff0000;entryX=0.75;entryY=0;entryDx=0;entryDy=0;exitX=0.5;exitY=1;exitDx=0;exitDy=0;" edge="1" parent="1" source="zGKTYWUoGFUMK8WJWvqi-11" target="zGKTYWUoGFUMK8WJWvqi-1">
          <mxGeometry relative="1" as="geometry">
            <mxPoint x="360" y="460" as="targetPoint" />
            <mxPoint x="300" y="380" as="sourcePoint" />
            <Array as="points">
              <mxPoint x="590" y="330" />
              <mxPoint x="430" y="330" />
            </Array>
          </mxGeometry>
        </mxCell>
        <mxCell id="zGKTYWUoGFUMK8WJWvqi-22" value="" style="edgeStyle=orthogonalEdgeStyle;html=1;verticalAlign=bottom;endArrow=open;endSize=8;strokeColor=#ff0000;entryX=0.5;entryY=0;entryDx=0;entryDy=0;exitX=0.5;exitY=1;exitDx=0;exitDy=0;" edge="1" parent="1" source="zGKTYWUoGFUMK8WJWvqi-9" target="zGKTYWUoGFUMK8WJWvqi-1">
          <mxGeometry relative="1" as="geometry">
            <mxPoint x="340" y="370" as="targetPoint" />
            <mxPoint x="500" y="140" as="sourcePoint" />
            <Array as="points">
              <mxPoint x="390" y="350" />
              <mxPoint x="390" y="350" />
            </Array>
          </mxGeometry>
        </mxCell>
        <mxCell id="zGKTYWUoGFUMK8WJWvqi-23" value="定时任务同步至工单表&lt;br&gt;&lt;span style=&quot;color: rgb(50 , 50 , 50) ; font-size: 13px ; background-color: rgba(255 , 255 , 255 , 0.01)&quot;&gt;SyncServiceFromECToHybrisCronjob&lt;/span&gt;" style="rounded=1;whiteSpace=wrap;html=1;arcSize=40;fontColor=#000000;fillColor=#ffffc0;strokeColor=#ff0000;" vertex="1" parent="1">
          <mxGeometry x="90" y="520" width="240" height="40" as="geometry" />
        </mxCell>
        <mxCell id="zGKTYWUoGFUMK8WJWvqi-24" value="JomooMbService&#xa;会员服务工单表" style="shape=module;align=left;spacingLeft=20;align=center;verticalAlign=top;jettyWidth=19;jettyHeight=8;fillColor=#dae8fc;strokeColor=#6c8ebf;" vertex="1" parent="1">
          <mxGeometry x="140" y="610" width="140" height="40" as="geometry" />
        </mxCell>
        <mxCell id="zGKTYWUoGFUMK8WJWvqi-25" value="" style="edgeStyle=orthogonalEdgeStyle;html=1;verticalAlign=bottom;endArrow=open;endSize=8;strokeColor=#ff0000;exitX=0.25;exitY=1;exitDx=0;exitDy=0;" edge="1" parent="1" source="zGKTYWUoGFUMK8WJWvqi-1" target="zGKTYWUoGFUMK8WJWvqi-23">
          <mxGeometry relative="1" as="geometry">
            <mxPoint x="360" y="390" as="targetPoint" />
            <mxPoint x="300" y="340" as="sourcePoint" />
          </mxGeometry>
        </mxCell>
        <mxCell id="zGKTYWUoGFUMK8WJWvqi-26" value="" style="edgeStyle=orthogonalEdgeStyle;html=1;verticalAlign=bottom;endArrow=open;endSize=8;strokeColor=#ff0000;exitX=0.5;exitY=1;exitDx=0;exitDy=0;entryX=0.5;entryY=0;entryDx=0;entryDy=0;" edge="1" parent="1" source="zGKTYWUoGFUMK8WJWvqi-23" target="zGKTYWUoGFUMK8WJWvqi-24">
          <mxGeometry relative="1" as="geometry">
            <mxPoint x="200" y="530" as="targetPoint" />
            <mxPoint x="360" y="430" as="sourcePoint" />
          </mxGeometry>
        </mxCell>
        <mxCell id="zGKTYWUoGFUMK8WJWvqi-27" value="界面导出功能" style="ellipse;whiteSpace=wrap;html=1;fillColor=#ffe6cc;strokeColor=#d79b00;" vertex="1" parent="1">
          <mxGeometry x="360" y="605" width="140" height="45" as="geometry" />
        </mxCell>
      </root>
    </mxGraphModel>
  </diagram>
</mxfile>
